<svg width="40" height="40" viewBox="0 0 40 40" fill="none" xmlns="http://www.w3.org/2000/svg">
<g style="mix-blend-mode:luminosity">
<path d="M28.52 14.65V29.05C28.52 29.63 28.05 30.1 27.47 30.1H17.29C16.71 30.1 16.24 29.63 16.24 29.05V28.16L25.34 24.72C25.7 24.58 25.94 24.24 25.94 23.85V13.6H27.47C28.05 13.6 28.52 14.07 28.52 14.65Z" fill="url(#paint0_linear_3605_575)"/>
<path d="M25.94 13.6V23.86C25.94 24.25 25.7 24.59 25.34 24.73L16.24 28.17V14.65C16.24 14.07 16.71 13.6 17.29 13.6H25.94Z" fill="url(#paint1_linear_3605_575)"/>
<path d="M25.94 10.93V13.6H17.29C16.71 13.6 16.24 14.07 16.24 14.65V28.17L12.74 29.49C12.13 29.72 11.48 29.27 11.48 28.62V10.92C11.48 10.41 11.9 9.98999 12.41 9.98999H25.01C25.52 9.99999 25.94 10.42 25.94 10.93Z" fill="url(#paint2_linear_3605_575)"/>
</g>
<defs>
<linearGradient id="paint0_linear_3605_575" x1="16.242" y1="21.8522" x2="28.518" y2="21.8522" gradientUnits="userSpaceOnUse">
<stop stop-color="#FCFF1C"/>
<stop offset="1" stop-color="#FF9D0A"/>
</linearGradient>
<linearGradient id="paint1_linear_3605_575" x1="16.242" y1="20.8857" x2="25.937" y2="20.8857" gradientUnits="userSpaceOnUse">
<stop stop-color="#FFDDCD"/>
<stop offset="1" stop-color="#FF5403"/>
</linearGradient>
<linearGradient id="paint2_linear_3605_575" x1="11.482" y1="19.7778" x2="25.937" y2="19.7778" gradientUnits="userSpaceOnUse">
<stop stop-color="#E7CFFF"/>
<stop offset="1" stop-color="#870FFF"/>
</linearGradient>
</defs>
</svg>
