<svg width="40" height="40" viewBox="0 0 40 40" fill="none" xmlns="http://www.w3.org/2000/svg">
<g style="mix-blend-mode:luminosity">
<path d="M27.0001 30.0599H12.9801C12.6301 30.0599 12.3401 29.7799 12.3401 29.4199V15.3999C12.3401 15.0499 12.6201 14.7599 12.9801 14.7599H27.0001C27.3501 14.7599 27.6401 15.0399 27.6401 15.3999V29.4199C27.6401 29.7699 27.3501 30.0599 27.0001 30.0599Z" fill="url(#paint0_linear_3605_563)"/>
<path d="M28.4599 23.72L15.5899 13.22C15.1299 12.84 15.3899 12.09 15.9899 12.09H28.8599C29.2099 12.09 29.4999 12.37 29.4999 12.73V23.24C29.4999 23.77 28.8799 24.06 28.4599 23.72Z" fill="url(#paint1_linear_3605_563)"/>
<path d="M11.54 21.58L24.41 11.07C24.87 10.69 24.61 9.94 24.01 9.94H11.14C10.79 9.94 10.5 10.22 10.5 10.58V21.09C10.5 21.62 11.12 21.92 11.54 21.58Z" fill="url(#paint2_linear_3605_563)"/>
</g>
<defs>
<linearGradient id="paint0_linear_3605_563" x1="12.3421" y1="22.4112" x2="27.6378" y2="22.4112" gradientUnits="userSpaceOnUse">
<stop stop-color="#FF9868"/>
<stop offset="1" stop-color="#FF5403"/>
</linearGradient>
<linearGradient id="paint1_linear_3605_563" x1="15.3527" y1="17.9792" x2="29.4999" y2="17.9792" gradientUnits="userSpaceOnUse">
<stop stop-color="#03FFE5"/>
<stop offset="1" stop-color="#14B348"/>
</linearGradient>
<linearGradient id="paint2_linear_3605_563" x1="10.5" y1="15.8319" x2="24.6472" y2="15.8319" gradientUnits="userSpaceOnUse">
<stop stop-color="#FCFF1C"/>
<stop offset="1" stop-color="#FF9D0A"/>
</linearGradient>
</defs>
</svg>
